<?xml version="1.0" encoding="UTF-8" standalone="no"?>
<!-- Created with Inkscape (http://www.inkscape.org/) -->

<svg
   xmlns:dc="http://purl.org/dc/elements/1.1/"
   xmlns:cc="http://creativecommons.org/ns#"
   xmlns:rdf="http://www.w3.org/1999/02/22-rdf-syntax-ns#"
   xmlns:svg="http://www.w3.org/2000/svg"
   xmlns="http://www.w3.org/2000/svg"
   xmlns:sodipodi="http://sodipodi.sourceforge.net/DTD/sodipodi-0.dtd"
   xmlns:inkscape="http://www.inkscape.org/namespaces/inkscape"
   width="500mm"
   height="500mm"
   viewBox="0 0 500 500"
   version="1.1"
   id="svg877"
   inkscape:version="0.92.4 (5da689c313, 2019-01-14)"
   sodipodi:docname="logo.svg">
  <defs
     id="defs871" />
  <sodipodi:namedview
     id="base"
     pagecolor="#ffffff"
     bordercolor="#666666"
     borderopacity="1.0"
     inkscape:pageopacity="0.0"
     inkscape:pageshadow="2"
     inkscape:zoom="0.24748737"
     inkscape:cx="2848.6005"
     inkscape:cy="-398.92105"
     inkscape:document-units="mm"
     inkscape:current-layer="layer1"
     showgrid="false"
     inkscape:window-width="1600"
     inkscape:window-height="838"
     inkscape:window-x="-8"
     inkscape:window-y="-8"
     inkscape:window-maximized="1" />
  <metadata
     id="metadata874">
    <rdf:RDF>
      <cc:Work
         rdf:about="">
        <dc:format>image/svg+xml</dc:format>
        <dc:type
           rdf:resource="http://purl.org/dc/dcmitype/StillImage" />
        <dc:title></dc:title>
      </cc:Work>
    </rdf:RDF>
  </metadata>
  <g
     inkscape:label="Camada 1"
     inkscape:groupmode="layer"
     id="layer1"
     transform="translate(0,203)">
    <circle
       style="fill:none;fill-opacity:1;stroke:#ffffff;stroke-width:6.99834728;stroke-linejoin:round;stroke-dasharray:none;stroke-opacity:1"
       id="path12400"
       cx="248.34996"
       cy="49.63847"
       r="242.02455" />
    <path
       id="path4781-9-7-1-2-4-03-5"
       style="fill:#13ff00;fill-opacity:1;stroke:#000000;stroke-width:4.89346886;stroke-linejoin:round;stroke-dasharray:none;stroke-opacity:1"
       d="m 273.74089,-88.950752 -26.09067,22.337261 -27.0892,23.153154 3.42957,-19.861523 c -2.48477,0.80497 -36.811,12.870957 -43.99034,52.338166 -2.61503,18.3890134 -0.29316,30.62993 8.18634,46.20009 -15.28081,-5.29973 -21.2408,-7.507314 -32.37478,-11.10734 -3.81025,10.736186 -7.08701,22.615102 -11.42105,37.47901 C 133.5043,43.222645 125.35699,7.2493414 129.67417,-19.315112 l 0.0353,-0.0089 c 5.3015,-33.260324 22.06291,-55.019953 42.4766,-72.726834 5.86588,-5.007709 12.67874,-9.038694 28.54172,-17.071274 16.05658,-7.85387 44.97726,-9.40293 44.97726,-9.40293 z"
       sodipodi:nodetypes="ccccccccccczcc"
       inkscape:connector-curvature="0" />
    <path
       id="path4781-9-7-1-2-4-0-2-7"
       style="fill:#13ff00;fill-opacity:1;stroke:#000000;stroke-width:4.89346886;stroke-linejoin:round;stroke-dasharray:none;stroke-opacity:1"
       d="M 312.36033,69.932579 306.02659,36.172041 299.50402,1.1549748 314.45061,13.617034 c 0.51181,-2.638453 7.23615,-27.909187 -14.92478,-56.879469 -16.22922,-18.730129 -35.77834,-23.58929 -50.91208,-24.219987 12.11556,-10.690791 16.17496,-13.483501 24.81856,-21.34399 -7.39257,-8.661412 -16.89381,-18.331918 -27.60619,-29.508628 21.4213,-0.87061 52.95662,6.00877 79.21869,28.793956 32.25743,27.768694 44.89428,65.739342 40.53563,106.260764 -1.20751,17.82195 -14.65146,44.026219 -14.65146,44.026219 z"
       sodipodi:nodetypes="cccccccccccc"
       inkscape:connector-curvature="0" />
    <path
       id="path4781-9-7-1-2-4-02-50-8"
       style="fill:#13ff00;fill-opacity:1;stroke:#000000;stroke-width:4.89346886;stroke-linejoin:round;stroke-dasharray:none;stroke-opacity:1"
       d="m 155.6642,23.939271 32.42217,11.420246 33.59111,11.891467 -17.97281,6.440955 c 2.03355,1.455657 27.74772,24.122315 66.24239,11.8475 17.25547,-6.953695 25.53562,-14.330311 36.06727,-29.473413 3.05135,15.888746 4.12607,22.153868 6.54956,33.580885 11.20928,-2.078796 23.21233,-5.083435 38.26413,-8.767016 C 311.60219,141.24526 285.58008,218.16734 246.64777,217.94834 209.80166,217.67507 177.85904,136.92822 144.32263,61.837735 Z"
       sodipodi:nodetypes="ccccccccccc"
       inkscape:connector-curvature="0" />
    <g
       id="g1535-5-0"
       transform="matrix(2.2883744,-0.45945232,0.70585377,1.4895427,-183.32783,-272.2086)">
      <path
         sodipodi:nodetypes="ccccccccccccc"
         inkscape:connector-curvature="0"
         id="path4529-3-7"
         d="m 117.13637,193.27477 5.66081,-3.1932 11.22247,3.32987 -13.35597,44.15405 5.74493,1.85288 -3.22928,10.46921 -20.76244,-6.38918 3.24298,-10.47988 5.25257,1.6201 9.87275,-32.26951 -5.95348,-1.8364 0.98904,-3.11474 z"
         style="fill:#000000;fill-opacity:1;stroke:#ffffff;stroke-width:0.78149301;stroke-linecap:butt;stroke-linejoin:miter;stroke-miterlimit:4;stroke-dasharray:none;stroke-opacity:1" />
      <path
         sodipodi:nodetypes="cccccccccccc"
         inkscape:connector-curvature="0"
         id="path4563-0-4"
         d="m 118.18636,194.74154 -1.44746,4.73127 5.787,1.78348 -10.92641,35.38079 c -2.02933,-0.61023 -3.13942,-0.96515 -5.16484,-1.58803 l -2.24735,7.32452 18.22045,5.62017 2.33674,-7.49849 -5.7902,-1.82637 13.36458,-43.97356 -9.38016,-2.87941 z"
         style="fill:#ffffff;fill-opacity:1;stroke:#000000;stroke-width:0;stroke-linecap:butt;stroke-linejoin:miter;stroke-miterlimit:4;stroke-dasharray:none;stroke-opacity:1" />
    </g>
    <path
       inkscape:connector-curvature="0"
       d="m 338.54482,195.27298 -38.99514,-19.84732 8.79236,-17.27436 29.20782,14.86596 7.69988,-15.12778 9.78683,4.98141 z"
       style="font-style:normal;font-variant:normal;font-weight:normal;font-stretch:normal;font-size:1.96906996px;line-height:1;font-family:'Gill Sans Ultra Bold';-inkscape-font-specification:'Gill Sans Ultra Bold, ';text-align:center;letter-spacing:0px;word-spacing:0px;writing-mode:lr-tb;text-anchor:middle;fill:#ffffff;fill-opacity:1;stroke:none;stroke-width:3.34790564;stroke-miterlimit:4;stroke-dasharray:none;stroke-opacity:1"
       id="path2258" />
    <path
       inkscape:connector-curvature="0"
       d="m 357.26053,158.50129 -38.99507,-19.84747 8.77923,-17.24898 38.99524,19.84768 z"
       style="font-style:normal;font-variant:normal;font-weight:normal;font-stretch:normal;font-size:1.96906996px;line-height:1;font-family:'Gill Sans Ultra Bold';-inkscape-font-specification:'Gill Sans Ultra Bold, ';text-align:center;letter-spacing:0px;word-spacing:0px;writing-mode:lr-tb;text-anchor:middle;fill:#ffffff;fill-opacity:1;stroke:none;stroke-width:3.34790564;stroke-miterlimit:4;stroke-dasharray:none;stroke-opacity:1"
       id="path2260" />
    <path
       inkscape:connector-curvature="0"
       d="m 356.26187,111.66312 -27.01959,5.42243 9.59877,-18.858535 10.1076,-2.093245 -4.38519,-9.148573 9.5336,-18.730944 11.66058,24.498943 27.81556,-5.596314 -9.6114,18.884148 -10.89112,2.24107 4.71307,9.89519 -9.5467,18.75646 z"
       style="font-style:normal;font-variant:normal;font-weight:normal;font-stretch:normal;font-size:1.96906996px;line-height:1;font-family:'Gill Sans Ultra Bold';-inkscape-font-specification:'Gill Sans Ultra Bold, ';text-align:center;letter-spacing:0px;word-spacing:0px;writing-mode:lr-tb;text-anchor:middle;fill:#ffffff;fill-opacity:1;stroke:none;stroke-width:3.34790564;stroke-miterlimit:4;stroke-dasharray:none;stroke-opacity:1"
       id="path2262" />
    <path
       inkscape:connector-curvature="0"
       d="m 405.81388,64.686169 q -4.25301,8.356033 -13.06989,11.20404 -8.82852,2.813147 -17.26236,-1.482835 -8.40737,-4.27894 -11.28123,-13.045045 -2.86564,-8.811201 1.36641,-17.160919 4.26596,-8.381501 13.07067,-11.203615 8.79171,-2.859657 17.19857,1.418025 8.43258,4.291974 11.34466,13.109943 2.89937,8.778805 -1.36683,17.160406 z M 380.5159,51.810393 q -0.84467,1.662669 -0.22936,3.357394 0.58441,1.686302 2.3533,2.581867 1.76083,0.895001 3.49828,0.397255 1.70904,-0.517374 2.55575,-2.17337 0.85795,-1.687955 0.26879,-3.371842 -0.61325,-1.696419 -2.38045,-2.594062 -1.76074,-0.89502 -3.47247,-0.384002 -1.731,0.508227 -2.59189,2.188741 z"
       style="font-style:normal;font-variant:normal;font-weight:normal;font-stretch:normal;font-size:1.96906996px;line-height:1;font-family:'Gill Sans Ultra Bold';-inkscape-font-specification:'Gill Sans Ultra Bold, ';text-align:center;letter-spacing:0px;word-spacing:0px;writing-mode:lr-tb;text-anchor:middle;fill:#ffffff;fill-opacity:1;stroke:none;stroke-width:3.34790564;stroke-miterlimit:4;stroke-dasharray:none;stroke-opacity:1"
       id="path2264" />
    <path
       inkscape:connector-curvature="0"
       d="m 131.45583,-118.36221 q 3.66471,-8.4759 12.00197,-11.79207 8.3372,-3.31586 16.87196,0.29918 8.56006,3.62592 11.91793,11.89634 3.35924,8.2693 -0.30552,16.74547 -3.65393,8.450441 -12.01724,11.755099 -8.36297,3.304515 -16.92348,-0.321217 -8.53412,-3.614619 -11.86783,-11.873402 -3.33395,-8.25826 0.3205,-16.70915 z m 23.26416,9.85391 q 0.75474,-1.74084 0.0827,-3.35763 -0.69341,-1.62723 -2.46884,-2.37904 -1.77548,-0.75033 -3.41825,-0.11406 -1.67158,0.61839 -2.42042,2.36926 -0.73102,1.68892 -0.0484,3.34328 0.69228,1.62759 2.4441,2.36747 1.77425,0.75294 3.4446,0.12523 1.65502,-0.65833 2.38547,-2.3521 z"
       style="font-style:normal;font-variant:normal;font-weight:normal;font-stretch:normal;font-size:1.91646004px;line-height:1;font-family:'Gill Sans Ultra Bold';-inkscape-font-specification:'Gill Sans Ultra Bold, ';text-align:center;letter-spacing:0px;word-spacing:0px;writing-mode:lr-tb;text-anchor:middle;fill:#ffffff;fill-opacity:1;stroke:none;stroke-width:3.25847626;stroke-miterlimit:4;stroke-dasharray:none;stroke-opacity:1"
       id="path2267" />
    <path
       inkscape:connector-curvature="0"
       d="m 138.69477,-64.797706 -8.67526,16.839246 -33.730379,-17.060623 3.792779,-19.309145 z"
       style="font-style:normal;font-variant:normal;font-weight:normal;font-stretch:normal;font-size:1.91646004px;line-height:1;font-family:'Gill Sans Ultra Bold';-inkscape-font-specification:'Gill Sans Ultra Bold, ';text-align:center;letter-spacing:0px;word-spacing:0px;writing-mode:lr-tb;text-anchor:middle;fill:#ffffff;fill-opacity:1;stroke:none;stroke-width:3.25847626;stroke-miterlimit:4;stroke-dasharray:none;stroke-opacity:1"
       id="path2270" />
    <path
       inkscape:connector-curvature="0"
       d="m 109.40546,-88.443883 q -1.15867,-9.161303 4.33019,-16.258637 5.4895,-7.09725 14.6763,-8.32804 9.21365,-1.23635 16.31387,4.1736 7.10066,5.40849 8.26044,14.569245 1.15656,9.133719 -4.36145,16.234868 -5.51634,7.101963 -14.73146,8.335542 -9.18627,1.232165 -16.25851,-4.181271 -7.0735,-5.411629 -8.22882,-14.545488 z m 25.04042,-3.357849 q -0.23809,-1.880035 -1.63519,-2.934221 -1.42526,-1.045156 -3.33532,-0.791088 -1.91048,0.256446 -3.00078,1.640263 -1.11864,1.386237 -0.87895,3.270496 0.23296,1.82644 1.66102,2.901338 1.42522,1.045039 3.30864,0.795098 1.9105,-0.256445 3.02664,-1.646992 1.08525,-1.411917 0.8549,-3.238021 z"
       style="font-style:normal;font-variant:normal;font-weight:normal;font-stretch:normal;font-size:1.91646004px;line-height:1;font-family:'Gill Sans Ultra Bold';-inkscape-font-specification:'Gill Sans Ultra Bold, ';text-align:center;letter-spacing:0px;word-spacing:0px;writing-mode:lr-tb;text-anchor:middle;fill:#ffffff;fill-opacity:1;stroke:none;stroke-width:3.25847626;stroke-miterlimit:4;stroke-dasharray:none;stroke-opacity:1"
       id="path2273" />
  </g>
</svg>
